HIERARCHY
ROOT Hips
{
	OFFSET 0.000000 0.000000 0.000000 
	CHANNELS 6 Xposition Yposition Zposition Zrotation Yrotation Xrotation
	JOINT LeftUpLeg
	{
		OFFSET 1.363060 -1.794630 0.839290 
		CHANNELS 3 Zrotation Yrotation Xrotation
		JOINT LeftLeg
		{
			OFFSET 2.448110 -6.726130 0.000000 
			CHANNELS 3 Zrotation Yrotation Xrotation
			JOINT LeftFoot
			{
				OFFSET 2.562200 -7.039590 0.000000 
				CHANNELS 3 Zrotation Yrotation Xrotation
				JOINT LeftToeBase
				{
					OFFSET 0.157640 -0.433110 2.322550 
					CHANNELS 3 Zrotation Yrotation Xrotation
					End Site
					{
						OFFSET 0.000000 0.000000 0.000000 
					}
				}
			}
		}
	}
	JOINT RightUpLeg
	{
		OFFSET -1.305520 -1.794630 0.839290 
		CHANNELS 3 Zrotation Yrotation Xrotation
		JOINT RightLeg
		{
			OFFSET -2.542530 -6.985550 0.000000 
			CHANNELS 3 Zrotation Yrotation Xrotation
			JOINT RightFoot
			{
				OFFSET -2.568260 -7.056230 0.000000 
				CHANNELS 3 Zrotation Yrotation Xrotation
				JOINT RightToeBase
				{
					OFFSET -0.164730 -0.452590 2.363150 
					CHANNELS 3 Zrotation Yrotation Xrotation
					End Site
					{
						OFFSET 0.000000 0.000000 0.000000 
					}
				}
			}
		}
	}
	JOINT Spine
	{
		OFFSET 0.028270 2.035590 -0.193380 
		CHANNELS 3 Zrotation Yrotation Xrotation
		JOINT Spine1
		{
			OFFSET 0.056720 2.048850 -0.042750 
			CHANNELS 3 Zrotation Yrotation Xrotation
			JOINT Neck1
			{
				OFFSET -0.054170 1.746240 0.172020 
				CHANNELS 3 Zrotation Yrotation Xrotation
				JOINT Head
				{
					OFFSET 0.104070 1.761360 -0.123970 
					CHANNELS 3 Zrotation Yrotation Xrotation
					End Site
					{
						OFFSET 0.000000 0.000000 0.000000 
					}
				}
			}
			JOINT LeftArm
			{
				OFFSET 3.362410 1.200890 -0.311210 
				CHANNELS 3 Zrotation Yrotation Xrotation
				JOINT LeftForeArm
				{
					OFFSET 4.983000 -0.000000 -0.000000 
					CHANNELS 3 Zrotation Yrotation Xrotation
					JOINT LeftHand
					{
						OFFSET 3.483560 -0.000000 -0.000000 
						CHANNELS 3 Zrotation Yrotation Xrotation
						JOINT LeftHandIndex1
						{
							OFFSET 0.715260 -0.000000 -0.000000 
							CHANNELS 3 Zrotation Yrotation Xrotation
							End Site
							{
								OFFSET 0.000000 0.000000 0.000000 
							}
						}
					}
				}
			}
			JOINT RightArm
			{
				OFFSET -3.136600 1.374050 -0.404650 
				CHANNELS 3 Zrotation Yrotation Xrotation
				JOINT RightForeArm
				{
					OFFSET -5.241900 -0.000000 -0.000000 
					CHANNELS 3 Zrotation Yrotation Xrotation
					JOINT RightHand
					{
						OFFSET -3.444170 -0.000000 -0.000000 
						CHANNELS 3 Zrotation Yrotation Xrotation
						JOINT RightHandIndex1
						{
							OFFSET -0.622530 -0.000000 -0.000000 
							CHANNELS 3 Zrotation Yrotation Xrotation
							End Site
							{
								OFFSET 0.000000 0.000000 0.000000 
							}
						}
					}
				}
			}
		}
	}
}
MOTION
Frames: 18
Frame Time: 0.041667
9.964255 17.846929 49.916875 -178.046368 -10.768108 -179.640343 -17.261157 -25.521958 -4.036547 -2.062735 8.714990 24.776624 -1.882463 7.920805 -2.253608 1.422900 -7.543400 -21.335600 23.809337 9.373063 -6.600122 1.551066 -9.079004 27.886627 6.266570 -23.147367 -19.304554 -0.335100 -3.719900 10.290000 0.865380 3.220996 9.095929 -5.113525 1.487905 -6.919607 2.952186 22.251986 1.353566 -2.486700 10.799600 1.965700 -86.685577 1.397883 39.054670 24.751077 -24.907235 -7.202035 1.721488 0.993645 10.457645 -7.125000 0.000000 0.000000 86.923740 -2.413550 46.971665 -21.239331 24.247486 -6.212018 1.296708 0.451180 12.314828 7.125000 0.000000 0.000000 
9.970510 17.846575 49.922540 -178.284666 -10.797144 -179.797234 -17.534544 -25.457037 -3.790651 -2.104864 8.646616 24.602090 -1.898547 7.951220 -2.206958 1.484700 -7.698200 -21.801100 23.655590 9.618137 -6.433012 1.509605 -9.141639 28.128568 6.184919 -23.047532 -19.704267 -0.382700 -3.972700 11.000000 0.829191 3.188915 9.160688 -4.942901 1.483842 -7.136450 3.010594 22.259727 1.526681 -2.454600 10.818200 2.022900 -86.730587 1.456013 39.061570 24.682804 -24.834251 -7.176922 1.688958 1.030099 11.118188 -7.125000 0.000000 0.000000 86.869796 -2.409808 47.012913 -21.206955 24.215985 -6.193484 1.297701 0.443989 12.599454 7.125000 0.000000 0.000000 
9.968858 17.845277 49.941660 -178.533474 -10.264437 -179.741964 -17.795707 -25.369444 -3.795496 -2.132929 8.634483 24.537943 -2.078105 8.382370 -2.475835 1.496500 -7.727400 -21.889100 23.338532 9.968057 -6.521280 1.503075 -9.162470 28.132281 6.286204 -23.230825 -19.539246 -0.360900 -3.859500 10.681700 0.646908 3.407925 9.046551 -4.933102 1.589685 -7.399389 2.989135 22.392663 1.488903 -2.476800 10.882200 2.000600 -86.732129 1.439535 38.962689 24.795110 -24.976193 -7.239496 1.710888 1.006828 10.628512 -7.125000 0.000000 0.000000 86.862364 -2.414748 47.082185 -21.201544 24.222782 -6.199028 1.289342 0.458628 12.622297 7.125000 0.000000 0.000000 
9.966970 17.846929 49.924901 -178.447247 -10.752955 -179.708643 -17.674665 -25.507106 -3.727005 -2.146911 8.584544 24.419175 -1.921172 8.003876 -2.224250 1.508600 -7.757200 -21.979100 23.462008 9.724197 -6.559831 1.494119 -9.193230 28.246863 6.290554 -23.408357 -20.013177 -0.384000 -3.979700 11.019500 0.666633 3.203351 9.140639 -4.930923 1.490459 -7.160343 3.095664 22.376575 1.442718 -2.431100 10.869900 1.978600 -86.688255 1.419090 39.029282 24.678314 -24.835915 -7.181422 1.681011 1.042620 11.102892 -7.125000 0.000000 0.000000 86.892353 -2.370498 47.079995 -21.178498 24.190384 -6.188983 1.293183 0.456288 12.596869 7.125000 0.000000 0.000000 
9.964963 17.846575 49.923720 -178.519855 -10.764480 -179.737778 -17.768992 -25.501603 -3.639604 -2.158538 8.562565 24.365772 -1.881408 7.908036 -2.181312 1.554300 -7.868400 -22.315000 23.379839 9.620173 -6.583167 1.468115 -9.215979 28.330128 6.270106 -23.320800 -19.932535 -0.378200 -3.949700 10.935200 0.563641 3.212655 9.190680 -4.932622 1.492946 -7.148544 2.915656 22.413752 1.360161 -2.526800 10.882200 1.982000 -86.631710 1.341330 38.962552 24.734503 -24.910593 -7.212038 1.725773 1.004540 10.547330 -7.125000 0.000000 0.000000 86.948415 -2.316691 47.011729 -21.167407 24.190273 -6.196868 1.285673 0.473070 12.501981 7.125000 0.000000 0.000000 
9.962721 17.846103 49.921596 -178.639579 -10.753149 -179.718363 -17.910756 -25.471196 -3.616964 -2.161723 8.567268 24.372881 -1.918726 7.997232 -2.252864 1.570800 -7.908100 -22.435300 23.219898 9.488766 -6.638963 1.458058 -9.207370 28.309495 6.274079 -23.234062 -19.696007 -0.348600 -3.793500 10.496600 0.493206 3.237095 9.199438 -4.896067 1.508595 -7.151029 2.894111 22.360663 1.368592 -2.544400 10.856900 1.989000 -86.619745 1.335672 39.199626 24.506783 -24.651263 -7.109348 1.670677 1.071479 11.451275 -7.125000 0.000000 0.000000 86.952889 -2.316325 46.951165 -21.210245 24.230856 -6.197141 1.289756 0.464309 12.449952 7.125000 0.000000 0.000000 
9.962367 17.845631 49.924428 -178.662422 -10.673108 -179.714482 -17.936061 -25.440503 -3.643880 -2.159916 8.577139 24.395189 -1.949075 8.071776 -2.332699 1.519800 -7.784800 -22.062300 23.184072 9.506739 -6.657252 1.455839 -9.207190 28.303099 6.269894 -23.189292 -19.602517 -0.326100 -3.670400 10.151200 0.529797 3.267861 9.194019 -4.869691 1.526569 -7.201781 2.850114 22.368055 1.396628 -2.562700 10.863800 2.000500 -86.715253 1.262742 39.109774 24.391248 -24.517673 -7.050452 1.659975 1.087530 11.881271 -7.125000 0.000000 0.000000 86.882998 -2.316759 47.107178 -21.180255 24.177660 -6.158223 1.302137 0.442654 12.323715 7.125000 0.000000 0.000000 
9.962721 17.848818 49.921950 -178.474355 -10.794794 -179.648972 -17.685453 -25.504742 -3.753597 -2.155354 8.570867 24.378685 -1.890891 7.933062 -2.216552 1.511300 -7.763900 -21.999300 23.390404 9.521710 -6.719644 1.465129 -9.221216 28.314045 6.256331 -23.214829 -19.716331 -0.338100 -3.736700 10.337200 0.649756 3.210337 9.181721 -4.900409 1.497777 -7.125714 2.818239 22.367702 1.219884 -2.572800 10.847100 1.931900 -86.661011 1.281854 39.364935 24.539319 -24.673134 -7.112376 1.660850 1.066207 11.332323 -7.125000 0.000000 0.000000 86.857020 -2.293218 47.218451 -21.146062 24.135500 -6.147375 1.304923 0.442882 12.156197 7.125000 0.000000 0.000000 
9.963075 17.846457 49.919944 -178.356550 -10.854783 -179.646241 -17.547295 -25.559705 -3.775032 -2.154446 8.561942 24.358121 -1.864045 7.867630 -2.131702 1.518800 -7.782200 -22.054500 23.507131 9.444634 -6.778971 1.458058 -9.237353 28.345335 6.248699 -23.189117 -19.649823 -0.362700 -3.868900 10.708100 0.726379 3.155370 9.205294 -4.912228 1.469083 -7.072162 2.567459 22.481165 1.077139 -2.689800 10.892800 1.915100 -86.705487 1.211297 39.133250 24.677822 -24.841453 -7.186325 1.701094 1.029288 10.689761 -7.125000 0.000000 0.000000 86.848648 -2.276905 47.259461 -21.214417 24.224006 -6.189974 1.297611 0.456346 11.969231 7.125000 0.000000 0.000000 
9.962721 17.840438 49.919353 -178.515758 -10.809523 -179.673304 -17.743165 -25.513149 -3.715360 -2.160636 8.557114 24.343663 -1.895305 7.935778 -2.094883 1.486400 -7.702500 -21.814000 23.333095 9.412846 -6.772832 1.440936 -9.242210 28.379060 6.247320 -23.133847 -19.549081 -0.378600 -3.952000 10.941600 0.654179 3.132167 9.274736 -4.839997 1.466313 -7.076951 2.475810 22.477178 0.970613 -2.730200 10.881000 1.885600 -86.724292 1.169975 39.069640 24.572827 -24.710807 -7.120681 1.685760 1.041909 11.092371 -7.125000 0.000000 0.000000 86.819321 -2.266258 47.334790 -21.261771 24.291426 -6.225675 1.290384 0.469121 11.837260 7.125000 0.000000 0.000000 
9.962131 17.843034 49.920416 -178.654880 -10.723992 -179.619150 -17.859080 -25.371084 -3.775367 -2.173359 8.545035 24.296766 -1.932413 8.020275 -2.017328 1.492600 -7.717700 -21.859900 23.184860 9.519198 -6.795667 1.432853 -9.254276 28.412337 6.227540 -23.065530 -19.552718 -0.381200 -3.965000 10.978100 0.563828 3.178084 9.254141 -4.792428 1.495455 -7.108526 2.565592 22.495951 0.888290 -2.698200 10.884100 1.823500 -86.691700 1.083951 38.985972 24.625261 -24.779359 -7.148117 1.733480 1.000477 10.516350 -7.125000 0.000000 0.000000 86.835404 -2.313488 47.294746 -21.250835 24.278213 -6.219379 1.291521 0.465983 11.926171 7.125000 0.000000 0.000000 
9.960832 17.845749 49.914869 -178.695820 -10.812542 -179.601641 -17.883671 -25.311854 -3.765802 -2.187791 8.518482 24.225371 -1.920927 7.990300 -1.937965 1.585000 -7.942100 -22.538400 23.154028 9.510152 -6.818212 1.414998 -9.285707 28.513063 6.188343 -23.003170 -19.685883 -0.381400 -3.966100 10.981300 0.539539 3.172588 9.272883 -4.772193 1.500153 -7.078257 2.871384 22.582882 0.796950 -2.574100 10.921500 1.716300 -86.677484 1.103070 39.189582 24.541984 -24.676209 -7.106243 1.691984 1.038446 11.075831 -7.125000 0.000000 0.000000 86.872182 -2.362571 47.184576 -21.231274 24.252306 -6.209384 1.293115 0.463194 12.057176 7.125000 0.000000 0.000000 
9.957528 17.838077 49.893978 -178.679012 -11.383424 -179.885628 -18.017932 -25.450797 -3.384819 -2.178446 8.504396 24.244846 -1.770362 7.624805 -1.840695 1.649200 -8.093600 -22.998900 23.243391 9.076386 -6.545735 1.391122 -9.272822 28.618689 6.096660 -22.887113 -20.048652 -0.425800 -4.187900 11.605800 0.589525 2.914540 9.586682 -4.735069 1.383258 -6.907364 2.910159 22.738259 0.607970 -2.561700 10.983800 1.630900 -86.684068 1.008715 39.166846 24.580475 -24.735555 -7.144049 1.702714 1.041221 10.758903 -7.125000 0.000000 0.000000 86.883124 -2.322663 47.033191 -21.253732 24.284889 -6.228903 1.289060 0.466548 12.352385 7.125000 0.000000 0.000000 
9.959298 17.839022 49.914160 -178.772849 -10.814022 -179.746291 -18.046870 -25.322688 -3.578903 -2.188200 8.516067 24.239453 -1.918736 7.984569 -2.022694 1.534600 -7.820800 -22.171100 23.076711 9.385076 -6.743080 1.384956 -9.296832 28.597936 6.115824 -22.768660 -19.575330 -0.421400 -4.166500 11.545400 0.494910 3.148195 9.448045 -4.742840 1.494016 -7.099840 3.009671 22.667708 0.775040 -2.509600 10.960100 1.695700 -86.639970 1.025486 39.336312 24.513687 -24.651946 -7.105691 1.665357 1.070980 10.979866 -7.125000 0.000000 0.000000 86.871612 -2.348707 47.001433 -21.312231 24.344254 -6.237066 1.291777 0.450987 12.633365 7.125000 0.000000 0.000000 
9.959180 17.839376 49.913334 -178.599905 -10.881648 -179.632693 -17.804985 -25.379464 -3.755674 -2.177120 8.532234 24.268935 -1.933517 8.020881 -1.980996 1.455800 -7.626200 -21.584400 23.243674 9.362519 -6.875243 1.397860 -9.301836 28.561451 6.139164 -22.830718 -19.516399 -0.437300 -4.243600 11.763000 0.566776 3.108570 9.373329 -4.800556 1.466464 -7.031701 2.883434 22.636307 0.806021 -2.555500 10.946800 1.734800 -86.670181 0.998900 39.177293 24.551278 -24.703350 -7.129790 1.701300 1.044956 10.697692 -7.125000 0.000000 0.000000 86.871088 -2.350615 47.125438 -21.292266 24.303036 -6.208992 1.302089 0.433434 12.507871 7.125000 0.000000 0.000000 
9.958354 17.838432 49.911092 -178.798711 -10.802979 -179.602511 -18.021273 -25.354025 -3.725141 -2.180292 8.537598 24.282449 -1.908823 7.966219 -2.105690 1.544100 -7.843900 -22.241000 23.018942 9.336016 -6.935622 1.376514 -9.314660 28.600194 6.165893 -22.821356 -19.341823 -0.436700 -4.240300 11.753800 0.459666 3.123734 9.429821 -4.715546 1.479802 -7.010969 2.785434 22.624858 0.933025 -2.578900 10.949900 1.822600 -86.704396 0.998489 39.158745 24.446810 -24.560940 -7.053307 1.681159 1.051856 11.481774 -7.125000 0.000000 0.000000 86.879586 -2.283129 47.167136 -21.260380 24.269037 -6.195891 1.303438 0.436637 12.311074 7.125000 0.000000 0.000000 
9.956230 17.839494 49.906371 -178.582580 -10.797060 -179.556888 -17.770540 -25.410431 -3.817053 -2.168731 8.550303 24.316764 -1.895800 7.939862 -2.123398 1.674700 -8.152800 -23.179000 23.238003 9.351379 -6.963952 1.397116 -9.307448 28.546591 6.208864 -22.977811 -19.396282 -0.398500 -4.053300 11.226500 0.507515 3.121244 9.418871 -4.824292 1.468513 -6.897998 2.796815 22.646976 0.928907 -2.580300 10.961000 1.829700 -86.644474 1.038761 39.191348 24.440084 -24.544885 -7.041865 1.667588 1.058166 11.721569 -7.125000 0.000000 0.000000 86.948585 -2.295478 47.114324 -21.302042 24.318248 -6.218543 1.299576 0.443935 12.291382 7.125000 0.000000 0.000000 
9.956230 17.837605 49.905073 -178.848635 -10.763972 -179.622158 -18.092435 -25.330732 -3.700257 -2.176391 8.549201 24.314848 -1.927331 8.012074 -2.173086 1.661800 -8.122800 -23.087700 22.976950 9.382257 -6.862667 1.383953 -9.301775 28.576074 6.233862 -23.035426 -19.466341 -0.398700 -4.054300 11.229500 0.334501 3.133144 9.470588 -4.753923 1.484828 -6.972446 2.923976 22.688520 0.790297 -2.545300 10.971700 1.729700 -86.643769 1.102278 39.107310 24.520313 -24.648558 -7.093173 1.673302 1.055246 11.533709 -7.125000 0.000000 0.000000 87.016338 -2.323176 47.010298 -21.278398 24.296502 -6.213040 1.299224 0.443892 12.422579 7.125000 0.000000 0.000000 
